<?xml version="1.0" encoding="utf-8"?>
<!-- Generator: Adobe Illustrator 16.0.0, SVG Export Plug-In . SVG Version: 6.00 Build 0)  -->
<!DOCTYPE svg PUBLIC "-//W3C//DTD SVG 1.1//EN" "http://www.w3.org/Graphics/SVG/1.1/DTD/svg11.dtd">
<svg version="1.1" id="Capa_1" xmlns="http://www.w3.org/2000/svg" xmlns:xlink="http://www.w3.org/1999/xlink" x="0px" y="0px"
	 width="119.059px" height="119.061px" viewBox="0 0 119.059 119.061" enable-background="new 0 0 119.059 119.061"
	 xml:space="preserve">
<g>
	<path fill="#FFFFFF" d="M81.869,59.538l33.507-33.512c4.914-4.914,4.914-12.957,0-17.871l-4.465-4.465
		c-4.915-4.92-12.957-4.92-17.871,0L59.532,37.202L26.021,3.69c-4.909-4.915-12.952-4.915-17.866,0l-4.47,4.465
		c-4.909,4.914-4.909,12.957,0,17.871l33.506,33.507L3.685,93.045c-4.909,4.914-4.909,12.956,0,17.865l4.47,4.466
		c4.914,4.914,12.957,4.914,17.866,0l33.512-33.502l33.507,33.502c4.914,4.914,12.956,4.914,17.871,0l4.465-4.466
		c4.914-4.914,4.914-12.956,0-17.865L81.869,59.538z"/>
</g>
</svg>
