<?xml version="1.0" encoding="utf-8"?>
<!-- Generator: Adobe Illustrator 16.0.0, SVG Export Plug-In . SVG Version: 6.00 Build 0)  -->
<!DOCTYPE svg PUBLIC "-//W3C//DTD SVG 1.1//EN" "http://www.w3.org/Graphics/SVG/1.1/DTD/svg11.dtd">
<svg version="1.1" id="_xE571_é£_x5F_1" xmlns="http://www.w3.org/2000/svg" xmlns:xlink="http://www.w3.org/1999/xlink" x="0px"
	 y="0px" width="390px" height="412.33px" viewBox="0 0 390 412.33" enable-background="new 0 0 390 412.33" xml:space="preserve">
<g>
	<g>
		<g>
			<path fill="#FFFFFF" d="M216.15,289.184c-1.76,0-3.427-1.048-4.127-2.775l-6.476-15.957c-7.667,1.293-15.566,1.163-23.218-0.392
				l-7.007,15.699c-1,2.239-3.625,3.251-5.874,2.254l-16.993-7.554c-1.079-0.48-1.924-1.37-2.349-2.472
				c-0.422-1.103-0.391-2.328,0.091-3.405l7.012-15.729c-6.232-4.633-11.604-10.433-15.78-17.027l-16.223,5.806
				c-2.31,0.826-4.861-0.373-5.689-2.686l-6.301-17.53c-0.397-1.108-0.34-2.336,0.164-3.402c0.504-1.067,1.412-1.892,2.522-2.291
				l16.22-5.819c-0.877-6.839-0.618-13.85,0.767-20.624l-15.709-7.027c-2.244-1.003-3.249-3.633-2.25-5.877l7.59-17.004
				c0.48-1.078,1.37-1.922,2.474-2.342c1.098-0.429,2.323-0.389,3.404,0.089l15.711,7.014c4.135-5.585,9.115-10.391,14.874-14.347
				l-6.5-15.969c-0.445-1.095-0.438-2.321,0.023-3.41c0.46-1.09,1.336-1.951,2.431-2.394l17.261-6.986
				c2.286-0.922,4.87,0.177,5.792,2.451l6.481,15.954c7.654-1.307,15.556-1.172,23.213,0.385l7.033-15.726
				c0.999-2.239,3.64-3.25,5.876-2.245l16.979,7.584c2.247,1,3.253,3.633,2.253,5.875l-7.023,15.729
				c6.234,4.619,11.604,10.415,15.771,17.027l16.217-5.796c2.299-0.819,4.851,0.37,5.685,2.68l6.309,17.498
				c0.4,1.114,0.342,2.336-0.159,3.406c-0.505,1.069-1.411,1.894-2.523,2.294l-16.221,5.822c0.878,6.833,0.616,13.852-0.768,20.64
				l15.736,7.017c1.078,0.481,1.921,1.374,2.344,2.475c0.421,1.104,0.389,2.331-0.096,3.411l-7.614,17.012
				c-0.999,2.24-3.637,3.246-5.877,2.244l-15.713-7.019c-4.127,5.546-9.174,10.419-14.848,14.34l6.487,15.971
				c0.443,1.092,0.436,2.318-0.023,3.408c-0.461,1.087-1.332,1.948-2.427,2.392l-17.265,7.002
				C217.271,289.079,216.706,289.184,216.15,289.184z M208.288,260.912c1.777,0,3.429,1.07,4.121,2.775l6.188,15.248l9.016-3.656
				l-6.198-15.257c-0.823-2.027-0.051-4.354,1.821-5.484c6.936-4.185,12.947-9.992,17.387-16.792c1.19-1.828,3.549-2.533,5.54-1.629
				l15.011,6.705l3.979-8.888l-15.029-6.701c-1.999-0.893-3.05-3.104-2.484-5.218c2.113-7.873,2.421-16.223,0.894-24.148
				c-0.418-2.156,0.801-4.292,2.865-5.035l15.5-5.563l-3.294-9.131l-15.498,5.539c-2.054,0.738-4.346-0.134-5.397-2.05
				c-4.298-7.823-10.487-14.501-17.896-19.313c-1.84-1.19-2.536-3.546-1.644-5.545l6.71-15.031l-8.851-3.951l-6.717,15.018
				c-0.889,1.997-3.076,3.057-5.209,2.483c-8.624-2.302-17.741-2.455-26.351-0.435c-2.116,0.498-4.312-0.632-5.137-2.66
				l-6.198-15.25l-9.006,3.646l6.209,15.254c0.826,2.03,0.053,4.357-1.822,5.489c-7.077,4.273-12.935,9.922-17.41,16.792
				c-1.193,1.835-3.545,2.527-5.543,1.638l-15.009-6.7l-3.964,8.879l15.012,6.713c1.999,0.892,3.051,3.106,2.48,5.222
				c-2.114,7.844-2.425,16.184-0.895,24.131c0.414,2.151-0.803,4.288-2.866,5.029l-15.504,5.561l3.291,9.157l15.497-5.547
				c2.063-0.725,4.343,0.124,5.398,2.04c4.308,7.808,10.503,14.493,17.917,19.332c1.831,1.194,2.523,3.541,1.632,5.538
				l-6.693,15.015l8.864,3.941l6.694-15.002c0.892-1.992,3.108-3.037,5.212-2.485c8.623,2.302,17.749,2.45,26.364,0.44
				C207.612,260.951,207.952,260.912,208.288,260.912z M195.055,243.779c-2.741,0-5.5-0.317-8.232-0.96
				c-19.211-4.499-31.174-23.813-26.672-43.048c4.508-19.231,23.805-31.187,43.019-26.72c19.234,4.509,31.216,23.822,26.711,43.053
				c-2.182,9.315-7.863,17.225-16,22.274C208.134,241.944,201.649,243.779,195.055,243.779z M195.012,181.009
				c-12.206,0-23.289,8.39-26.191,20.79c-3.388,14.458,5.598,28.975,20.031,32.358l0,0c7.006,1.642,14.224,0.452,20.336-3.345
				c6.116-3.794,10.387-9.739,12.023-16.736c3.388-14.452-5.618-28.968-20.072-32.356
				C199.088,181.242,197.033,181.009,195.012,181.009z"/>
		</g>
		<path fill="#FFFFFF" d="M195.081,308.559c-86.101-1.724-150.972-58.967-185.823-89.722c-2.79-2.463-5.363-4.736-7.719-6.77
			c-0.911-0.788-1.464-1.911-1.533-3.115c-0.066-1.199,0.354-2.377,1.172-3.265c60.77-66.05,125.945-100.294,193.715-101.777
			c0.069,0,0.126,0,0.197,0c67.793,1.483,132.979,35.727,193.735,101.777c0.817,0.888,1.238,2.066,1.167,3.269
			c-0.066,1.203-0.618,2.323-1.531,3.111c-2.371,2.049-4.965,4.336-7.777,6.819C345.831,249.623,280.96,306.835,195.081,308.559z
			 M10.838,208.365c1.374,1.208,2.811,2.474,4.308,3.799c33.999,29.997,97.275,85.838,179.935,87.493
			c82.437-1.655,145.717-57.463,179.714-87.447c1.52-1.343,2.977-2.626,4.37-3.845c-58.133-61.979-120.071-94.121-184.173-95.554
			C130.915,114.245,68.979,146.386,10.838,208.365z"/>
	</g>
	<g>
		<path fill="#FFFFFF" d="M197.656,83.236c-2.457,0-4.45-1.995-4.45-4.453V4.45c0-2.457,1.993-4.45,4.45-4.45
			c2.457,0,4.452,1.994,4.452,4.45v74.333C202.108,81.241,200.113,83.236,197.656,83.236z"/>
		<g>
			<path fill="#FFFFFF" d="M303.422,79.779c-1.123,0-2.252-0.423-3.117-1.275c-1.754-1.722-1.783-4.538-0.059-6.293l33.347-33.986
				c1.718-1.75,4.539-1.782,6.293-0.058c1.752,1.721,1.782,4.537,0.057,6.293l-33.345,33.986
				C305.729,79.334,304.575,79.779,303.422,79.779z"/>
			<path fill="#FFFFFF" d="M283.852,99.348c-1.14,0-2.277-0.434-3.146-1.304c-1.739-1.737-1.739-4.554,0-6.293l8.387-8.389
				c1.74-1.739,4.556-1.739,6.295,0c1.738,1.74,1.738,4.554,0,6.294L287,98.044C286.128,98.915,284.99,99.348,283.852,99.348z"/>
		</g>
		<g>
			<path fill="#FFFFFF" d="M92.915,79.779c-1.123,0-2.251-0.423-3.116-1.275l-35.186-34.53c-1.753-1.723-1.778-4.538-0.058-6.293
				c1.716-1.751,4.537-1.786,6.293-0.059l35.187,34.531c1.752,1.72,1.778,4.537,0.058,6.293
				C95.221,79.334,94.068,79.779,92.915,79.779z"/>
			<path fill="#FFFFFF" d="M112.494,99.348c-1.138,0-2.277-0.434-3.146-1.304l-8.39-8.388c-1.738-1.74-1.738-4.554,0-6.294
				c1.739-1.739,4.557-1.739,6.294,0l8.389,8.389c1.739,1.739,1.739,4.556,0,6.293C114.772,98.915,113.633,99.348,112.494,99.348z"
				/>
		</g>
	</g>
	<g>
		<path fill="#FFFFFF" d="M195.822,412.33c-2.457,0-4.45-1.99-4.45-4.448v-74.339c0-2.458,1.993-4.45,4.45-4.45
			c2.458,0,4.452,1.992,4.452,4.45v74.339C200.273,410.34,198.279,412.33,195.822,412.33z"/>
		<g>
			<path fill="#FFFFFF" d="M56.712,375.438c-1.124,0-2.25-0.425-3.118-1.277c-1.753-1.72-1.782-4.538-0.057-6.293l33.345-33.986
				c1.714-1.75,4.541-1.781,6.293-0.058c1.753,1.721,1.782,4.538,0.057,6.294l-33.345,33.986
				C59.02,374.99,57.866,375.438,56.712,375.438z"/>
			<path fill="#FFFFFF" d="M101.239,330.272c-1.138,0-2.277-0.436-3.146-1.305c-1.739-1.738-1.739-4.555,0-6.294l8.388-8.388
				c1.739-1.738,4.556-1.738,6.293,0c1.739,1.739,1.739,4.556,0,6.293l-8.388,8.389
				C103.517,329.837,102.379,330.272,101.239,330.272z"/>
		</g>
		<g>
			<path fill="#FFFFFF" d="M335.749,375.98c-1.124,0-2.25-0.422-3.116-1.273l-35.188-34.531c-1.753-1.721-1.779-4.537-0.059-6.294
				c1.713-1.75,4.54-1.781,6.294-0.058l35.188,34.531c1.752,1.719,1.779,4.537,0.058,6.294
				C338.058,375.535,336.902,375.98,335.749,375.98z"/>
			<path fill="#FFFFFF" d="M289.374,330.272c-1.139,0-2.277-0.436-3.146-1.305l-8.388-8.389c-1.74-1.737-1.74-4.554,0-6.293
				c1.738-1.738,4.554-1.738,6.293,0l8.388,8.388c1.739,1.739,1.739,4.556,0,6.294C291.652,329.837,290.512,330.272,289.374,330.272
				z"/>
		</g>
	</g>
</g>
</svg>
