<?xml version="1.0" encoding="utf-8"?>
<!-- Generator: Adobe Illustrator 16.0.0, SVG Export Plug-In . SVG Version: 6.00 Build 0)  -->
<!DOCTYPE svg PUBLIC "-//W3C//DTD SVG 1.1//EN" "http://www.w3.org/Graphics/SVG/1.1/DTD/svg11.dtd">
<svg version="1.1" id="a_x3F__x3F_a_xB1_" xmlns="http://www.w3.org/2000/svg" xmlns:xlink="http://www.w3.org/1999/xlink" x="0px"
	 y="0px" width="528.264px" height="175.862px" viewBox="0 0 528.264 175.862" enable-background="new 0 0 528.264 175.862"
	 xml:space="preserve">
<g>
	<rect fill="#E60012" width="33.003" height="172.924"/>
	<polygon fill="#E60012" points="133.592,174.054 93.582,174.054 50.634,113.927 90.644,113.927 	"/>
	<polygon fill="#E60012" points="78.889,42.495 121.16,42.495 56.285,110.536 18.084,110.536 	"/>
	<path fill="#E60012" d="M255.881,49.052c6.781,7.685,7.911,19.439,7.911,19.439v105.335h-62.839v-33.454h28.934V75.951
		l-28.934,32.324V38.654h35.036C235.99,38.654,247.969,40.009,255.881,49.052z M200.953,173.827H167.95
		c0,0-19.439-2.034-27.803-19.439c-1.582-3.391-2.486-7.007-2.486-10.398v-2.486c0.452-14.015,9.493-27.126,9.493-27.126
		l40.914-41.817h-36.394V38.654h49.278v69.621l-28.935,32.099h28.935V173.827z"/>
	<path fill="#E60012" d="M306.741,39.558h86.801V72.56H309.68v35.942h75.498v31.872h-75.95v35.489h-32.776V73.012
		c0,0-0.678-14.014,10.398-24.412C295.213,40.688,306.741,39.558,306.741,39.558z"/>
	<path fill="#E60012" d="M492.775,140.373h-28.708v34.811l64.197-0.452V72.107c0,0-2.034-11.98-9.493-20.569
		c-7.687-8.364-21.023-11.98-21.023-11.98h-33.681V72.56h28.708V140.373z M464.067,140.373H435.36V72.56h28.707V39.558H435.36
		c0,0-13.11,2.034-21.021,9.946c-7.687,8.137-10.173,21.926-10.173,21.926v75.046c0,0,3.391,14.467,13.111,20.796
		c10.171,6.555,22.604,8.138,22.604,8.138l24.186-0.227V140.373z"/>
</g>
</svg>
