<?xml version="1.0" encoding="utf-8"?>
<!-- Generator: Adobe Illustrator 16.0.0, SVG Export Plug-In . SVG Version: 6.00 Build 0)  -->
<!DOCTYPE svg PUBLIC "-//W3C//DTD SVG 1.1//EN" "http://www.w3.org/Graphics/SVG/1.1/DTD/svg11.dtd">
<svg version="1.1" id="Graphic" xmlns="http://www.w3.org/2000/svg" xmlns:xlink="http://www.w3.org/1999/xlink" x="0px" y="0px"
	 width="79.37px" height="79.37px" viewBox="0 0 79.37 79.37" enable-background="new 0 0 79.37 79.37" xml:space="preserve">
<path fill="#FFFFFF" d="M52.674,9.025c-12.033-12.034-31.615-12.034-43.649,0c-12.035,12.035-12.035,31.615,0,43.649
	c10.562,10.563,26.937,11.853,38.919,3.873l21.041,21.041c2.376,2.375,6.228,2.375,8.603,0s2.375-6.228,0-8.602L56.547,47.946
	C64.526,35.962,63.237,19.587,52.674,9.025z M44.073,44.072c-7.292,7.291-19.154,7.291-26.446,0
	c-7.291-7.29-7.291-19.153,0.001-26.444c7.291-7.292,19.153-7.292,26.445-0.001C51.363,24.918,51.363,36.781,44.073,44.072z"/>
</svg>
