<svg width="50" height="51" viewBox="0 0 50 51" fill="none" xmlns="http://www.w3.org/2000/svg">
<path d="M37.5 6.75002L37.75 6.75002C40.5784 6.75002 41.9926 6.75002 42.8713 7.6287C43.75 8.50738 43.75 9.92159 43.75 12.75L43.75 18.25C43.75 18.7214 43.75 18.9571 43.6036 19.1036C43.4571 19.25 43.2214 19.25 42.75 19.25L31.25 19.25M37.5 6.75002L37.25 6.75002C34.4216 6.75002 33.0074 6.75002 32.1287 7.6287C31.25 8.50738 31.25 9.92159 31.25 12.75L31.25 19.25M37.5 6.75002L10.25 6.75002C8.36438 6.75002 7.42157 6.75002 6.83579 7.3358C6.25 7.92159 6.25 8.8644 6.25 10.75L6.25 44.25L12.5 42.1667L18.75 44.25L25 42.1667L31.25 44.25L31.25 19.25" stroke="black" stroke-width="2"/>
<path d="M14.5835 15.0833L22.9168 15.0833" stroke="#E60012" stroke-width="2" stroke-linecap="round"/>
<path d="M16.6665 23.4167H14.5832" stroke="#E60012" stroke-width="2" stroke-linecap="round"/>
<path d="M14.5835 31.75L20.8335 31.75" stroke="#E60012" stroke-width="2" stroke-linecap="round"/>
</svg>
